<svg width="60" height="60" viewBox="0 0 60 60" fill="none" xmlns="http://www.w3.org/2000/svg">
    <g filter="url(#filter0_bd_11_11)">
        <path d="M23.5823 6C21.7581 6 20.2546 7.08438 20.2546 8.4V10H11.589C11.4503 9.98125 11.3117 9.98125 11.173 10H9.16257C9.12791 10 9.09325 10 9.05858 10C8.44765 10.0219 7.97104 10.3969 8.00137 10.8375C8.0317 11.2781 8.55164 11.6219 9.16257 11.6H10.3758L14.362 44C14.5006 45.1188 15.8222 46 17.3776 46H38.6606C40.216 46 41.5376 45.1188 41.6762 44L45.6624 11.6H46.8756C47.2743 11.6031 47.6469 11.4531 47.8505 11.2031C48.0498 10.9531 48.0498 10.6469 47.8505 10.3969C47.6469 10.1469 47.2743 9.99688 46.8756 10H35.7836V8.4C35.7836 7.08438 34.2801 6 32.4559 6H23.5823ZM23.5823 7.6H32.4559C33.0799 7.6 33.5651 7.95 33.5651 8.4V10H22.4731V8.4C22.4731 7.95 22.9583 7.6 23.5823 7.6ZM12.5942 11.6H43.444L39.4578 43.875C39.4231 44.1531 39.0115 44.4 38.6606 44.4H17.3776C17.0267 44.4 16.6151 44.1531 16.5804 43.875L12.5942 11.6ZM21.2599 13.975C21.2122 13.9812 21.1645 13.9906 21.1212 14C20.6056 14.0844 20.2416 14.4188 20.2546 14.8V41.2C20.2503 41.4875 20.4583 41.7562 20.8049 41.9031C21.1515 42.0469 21.5762 42.0469 21.9228 41.9031C22.2694 41.7562 22.4774 41.4875 22.4731 41.2V14.8C22.4861 14.5688 22.3561 14.3469 22.1264 14.1906C21.8925 14.0312 21.5762 13.9531 21.2599 13.975ZM27.9151 13.975C27.8675 13.9812 27.8198 13.9906 27.7765 14C27.2609 14.0844 26.8969 14.4188 26.9099 14.8V41.2C26.9056 41.4875 27.1135 41.7562 27.4602 41.9031C27.8068 42.0469 28.2314 42.0469 28.578 41.9031C28.9247 41.7562 29.1326 41.4875 29.1283 41.2V14.8C29.1413 14.5688 29.0113 14.3469 28.7817 14.1906C28.5477 14.0312 28.2314 13.9531 27.9151 13.975ZM34.5704 13.975C34.5227 13.9812 34.475 13.9906 34.4317 14C33.9161 14.0844 33.5521 14.4188 33.5651 14.8V41.2C33.5608 41.4875 33.7688 41.7562 34.1154 41.9031C34.462 42.0469 34.8867 42.0469 35.2333 41.9031C35.5799 41.7562 35.7879 41.4875 35.7836 41.2V14.8C35.7966 14.5688 35.6666 14.3469 35.4369 14.1906C35.203 14.0312 34.8867 13.9531 34.5704 13.975Z"
              fill="#F47467"/>
    </g>
    <defs>
        <filter id="filter0_bd_11_11" x="0" y="0" width="60" height="60" filterUnits="userSpaceOnUse"
                color-interpolation-filters="sRGB">
            <feFlood flood-opacity="0" result="BackgroundImageFix"/>
            <feGaussianBlur in="BackgroundImage" stdDeviation="2"/>
            <feComposite in2="SourceAlpha" operator="in" result="effect1_backgroundBlur_11_11"/>
            <feColorMatrix in="SourceAlpha" type="matrix" values="0 0 0 0 0 0 0 0 0 0 0 0 0 0 0 0 0 0 127 0"
                           result="hardAlpha"/>
            <feOffset dx="2" dy="4"/>
            <feGaussianBlur stdDeviation="5"/>
            <feComposite in2="hardAlpha" operator="out"/>
            <feColorMatrix type="matrix" values="0 0 0 0 0.808333 0 0 0 0 0.634317 0 0 0 0 0.616354 0 0 0 1 0"/>
            <feBlend mode="normal" in2="effect1_backgroundBlur_11_11" result="effect2_dropShadow_11_11"/>
            <feBlend mode="normal" in="SourceGraphic" in2="effect2_dropShadow_11_11" result="shape"/>
        </filter>
    </defs>
</svg>
